<svg width="723" height="484" viewBox="0 0 723 484" fill="none" xmlns="http://www.w3.org/2000/svg">
<g clip-path="url(#clip0)">
<path d="M704.522 46.811H114.103C109.204 46.8161 104.507 48.6671 101.043 51.9581C97.5791 55.249 95.6305 59.711 95.6252 64.3651V360.277C95.6305 364.931 97.5791 369.393 101.043 372.684C104.507 375.975 109.204 377.826 114.103 377.831H704.522C709.421 377.826 714.118 375.975 717.582 372.684C721.046 369.393 722.995 364.931 723 360.277V64.3651C722.995 59.711 721.046 55.249 717.582 51.9581C714.118 48.6671 709.421 46.8161 704.522 46.811ZM721.24 360.277C721.236 364.488 719.474 368.526 716.339 371.504C713.205 374.481 708.955 376.156 704.522 376.16H114.103C109.671 376.156 105.421 374.481 102.286 371.504C99.1517 368.526 97.389 364.488 97.385 360.277V64.3651C97.389 60.154 99.1517 56.1165 102.286 53.1388C105.421 50.1611 109.671 48.4866 114.103 48.4828H704.522C708.955 48.4866 713.205 50.1611 716.339 53.1388C719.474 56.1165 721.236 60.154 721.24 64.3651V360.277Z" fill="#3F3D56"/>
<path d="M675.485 94.7668H143.14C142.907 94.7668 142.683 94.6788 142.518 94.522C142.353 94.3652 142.26 94.1526 142.26 93.9309C142.26 93.7092 142.353 93.4966 142.518 93.3398C142.683 93.1831 142.907 93.095 143.14 93.095H675.485C675.718 93.095 675.942 93.1831 676.107 93.3398C676.272 93.4966 676.365 93.7092 676.365 93.9309C676.365 94.1526 676.272 94.3652 676.107 94.522C675.942 94.6788 675.718 94.7668 675.485 94.7668Z" fill="#3F3D56"/>
<path d="M293.605 341.887C293.371 341.887 293.147 341.799 292.982 341.642C292.817 341.486 292.725 341.273 292.725 341.051V66.0369C292.725 65.8152 292.817 65.6026 292.982 65.4458C293.147 65.2891 293.371 65.201 293.605 65.201C293.838 65.201 294.062 65.2891 294.227 65.4458C294.392 65.6026 294.485 65.8152 294.485 66.0369V341.051C294.485 341.273 294.392 341.486 294.227 341.642C294.062 341.799 293.838 341.887 293.605 341.887Z" fill="#3F3D56"/>
<path d="M426.471 341.887C426.237 341.887 426.014 341.799 425.849 341.642C425.684 341.486 425.591 341.273 425.591 341.051V66.0369C425.591 65.8152 425.684 65.6026 425.849 65.4458C426.014 65.2891 426.237 65.201 426.471 65.201C426.704 65.201 426.928 65.2891 427.093 65.4458C427.258 65.6026 427.351 65.8152 427.351 66.0369V341.051C427.351 341.273 427.258 341.486 427.093 341.642C426.928 341.799 426.704 341.887 426.471 341.887Z" fill="#3F3D56"/>
<path d="M559.337 341.887C559.104 341.887 558.88 341.799 558.715 341.642C558.55 341.486 558.457 341.273 558.457 341.051V66.0369C558.457 65.8152 558.55 65.6026 558.715 65.4458C558.88 65.2891 559.104 65.201 559.337 65.201C559.57 65.201 559.794 65.2891 559.959 65.4458C560.124 65.6026 560.217 65.8152 560.217 66.0369V341.051C560.217 341.273 560.124 341.486 559.959 341.642C559.794 341.799 559.57 341.887 559.337 341.887Z" fill="#3F3D56"/>
<path d="M208.179 181.048H176.027C174.978 181.047 173.971 180.65 173.229 179.945C172.487 179.239 172.069 178.283 172.068 177.286V141.242C172.069 140.245 172.487 139.288 173.229 138.583C173.971 137.878 174.978 137.481 176.027 137.48H208.179C209.229 137.481 210.235 137.878 210.978 138.583C211.72 139.288 212.138 140.245 212.139 141.242V177.286C212.138 178.283 211.72 179.239 210.978 179.945C210.235 180.65 209.229 181.047 208.179 181.048Z" fill="#6C63FF"/>
<path d="M253.935 283.865H221.783C220.733 283.863 219.726 283.467 218.984 282.762C218.242 282.056 217.824 281.1 217.823 280.103V244.059C217.824 243.062 218.242 242.105 218.984 241.4C219.726 240.695 220.733 240.298 221.783 240.297H253.935C254.984 240.298 255.991 240.695 256.733 241.4C257.475 242.105 257.893 243.062 257.894 244.059V280.103C257.893 281.1 257.475 282.056 256.733 282.762C255.991 283.467 254.984 283.863 253.935 283.865Z" fill="#6C63FF"/>
<path d="M357.764 202.781H325.612C324.562 202.78 323.556 202.383 322.813 201.678C322.071 200.973 321.654 200.017 321.652 199.02V162.976C321.654 161.978 322.071 161.022 322.813 160.317C323.556 159.612 324.562 159.215 325.612 159.214H357.764C358.814 159.215 359.82 159.612 360.562 160.317C361.305 161.022 361.722 161.978 361.723 162.976V199.02C361.722 200.017 361.305 200.973 360.562 201.678C359.82 202.384 358.814 202.78 357.764 202.781Z" fill="#6C63FF"/>
<path d="M492.39 163.494H460.238C459.188 163.492 458.182 163.096 457.439 162.391C456.697 161.685 456.28 160.729 456.278 159.732V123.688C456.28 122.691 456.697 121.734 457.439 121.029C458.182 120.324 459.188 119.927 460.238 119.926H492.39C493.44 119.927 494.446 120.324 495.188 121.029C495.931 121.734 496.348 122.691 496.349 123.688V159.732C496.348 160.729 495.931 161.685 495.188 162.391C494.446 163.096 493.44 163.492 492.39 163.494Z" fill="#6C63FF"/>
<path d="M616.457 163.494H584.305C583.255 163.492 582.249 163.096 581.506 162.391C580.764 161.685 580.347 160.729 580.345 159.732V123.688C580.347 122.691 580.764 121.734 581.506 121.029C582.249 120.324 583.255 119.927 584.305 119.926H616.457C617.507 119.927 618.513 120.324 619.255 121.029C619.998 121.734 620.415 122.691 620.417 123.688V159.732C620.415 160.729 619.998 161.685 619.255 162.391C618.513 163.096 617.507 163.492 616.457 163.494Z" fill="#6C63FF"/>
<path d="M673.651 173.524H641.499C640.449 173.523 639.443 173.127 638.701 172.421C637.958 171.716 637.541 170.76 637.54 169.763V133.719C637.541 132.721 637.958 131.765 638.701 131.06C639.443 130.355 640.449 129.958 641.499 129.957H673.651C674.701 129.958 675.707 130.355 676.449 131.06C677.192 131.765 677.609 132.721 677.611 133.719V169.763C677.609 170.76 677.192 171.716 676.449 172.421C675.707 173.127 674.701 173.523 673.651 173.524Z" fill="#E6E6E6"/>
<path d="M648.134 237.889H615.982C614.932 237.888 613.926 237.492 613.183 236.786C612.441 236.081 612.023 235.125 612.022 234.128V198.084C612.023 197.087 612.441 196.13 613.183 195.425C613.926 194.72 614.932 194.323 615.982 194.322H648.134C649.183 194.323 650.19 194.72 650.932 195.425C651.674 196.13 652.092 197.087 652.093 198.084V234.128C652.092 235.125 651.674 236.081 650.932 236.787C650.19 237.492 649.183 237.888 648.134 237.889Z" fill="#E6E6E6"/>
<path d="M539.025 224.515H506.873C505.823 224.514 504.817 224.117 504.075 223.412C503.332 222.707 502.915 221.751 502.914 220.753V184.709C502.915 183.712 503.332 182.756 504.075 182.051C504.817 181.345 505.823 180.949 506.873 180.948H539.025C540.075 180.949 541.081 181.345 541.824 182.051C542.566 182.756 542.983 183.712 542.985 184.709V220.753C542.983 221.751 542.566 222.707 541.824 223.412C541.081 224.117 540.075 224.514 539.025 224.515Z" fill="#FF6584"/>
<path d="M476.551 237.889H444.4C443.35 237.888 442.343 237.492 441.601 236.786C440.859 236.081 440.441 235.125 440.44 234.128V198.084C440.441 197.087 440.859 196.13 441.601 195.425C442.343 194.72 443.35 194.323 444.4 194.322H476.551C477.601 194.323 478.608 194.72 479.35 195.425C480.092 196.13 480.51 197.087 480.511 198.084V234.128C480.51 235.125 480.092 236.081 479.35 236.787C478.608 237.492 477.601 237.888 476.551 237.889Z" fill="#E6E6E6"/>
<path d="M341.926 294.731H309.774C308.724 294.73 307.717 294.334 306.975 293.628C306.233 292.923 305.815 291.967 305.814 290.97V254.926C305.815 253.928 306.233 252.972 306.975 252.267C307.717 251.562 308.724 251.165 309.774 251.164H341.926C342.975 251.165 343.982 251.562 344.724 252.267C345.466 252.972 345.884 253.928 345.885 254.926V290.97C345.884 291.967 345.466 292.923 344.724 293.628C343.982 294.334 342.975 294.73 341.926 294.731Z" fill="#E6E6E6"/>
<path d="M179.142 247.085H146.99C145.941 247.083 144.934 246.687 144.192 245.982C143.45 245.276 143.032 244.32 143.031 243.323V207.279C143.032 206.282 143.45 205.325 144.192 204.62C144.934 203.915 145.941 203.518 146.99 203.517H179.142C180.192 203.518 181.199 203.915 181.941 204.62C182.683 205.325 183.101 206.282 183.102 207.279V243.323C183.101 244.32 182.683 245.276 181.941 245.982C181.199 246.687 180.192 247.083 179.142 247.085Z" fill="#FF6584"/>
<path d="M269.773 181.048H237.621C236.571 181.047 235.565 180.65 234.822 179.945C234.08 179.239 233.663 178.283 233.661 177.286V141.242C233.663 140.245 234.08 139.288 234.822 138.583C235.565 137.878 236.571 137.481 237.621 137.48H269.773C270.823 137.481 271.829 137.878 272.571 138.583C273.314 139.288 273.731 140.245 273.732 141.242V177.286C273.731 178.283 273.314 179.239 272.571 179.945C271.829 180.65 270.823 181.047 269.773 181.048Z" fill="#E6E6E6"/>
<path d="M243.45 81.0833H193.295C192.362 81.0833 191.466 80.731 190.806 80.104C190.146 79.4769 189.775 78.6264 189.775 77.7396C189.775 76.8528 190.146 76.0024 190.806 75.3753C191.466 74.7483 192.362 74.396 193.295 74.396H243.45C244.383 74.396 245.279 74.7483 245.939 75.3753C246.599 76.0024 246.969 76.8528 246.969 77.7396C246.969 78.6264 246.599 79.4769 245.939 80.104C245.279 80.731 244.383 81.0833 243.45 81.0833Z" fill="#CCCCCC"/>
<path d="M385.115 81.0833H334.96C334.027 81.0833 333.132 80.731 332.472 80.104C331.811 79.4769 331.441 78.6264 331.441 77.7396C331.441 76.8528 331.811 76.0024 332.472 75.3753C333.132 74.7483 334.027 74.396 334.96 74.396H385.115C386.049 74.396 386.944 74.7483 387.604 75.3753C388.264 76.0024 388.635 76.8528 388.635 77.7396C388.635 78.6264 388.264 79.4769 387.604 80.104C386.944 80.731 386.049 81.0833 385.115 81.0833Z" fill="#CCCCCC"/>
<path d="M517.981 81.0833H467.827C466.893 81.0833 465.998 80.731 465.338 80.104C464.678 79.4769 464.307 78.6264 464.307 77.7396C464.307 76.8528 464.678 76.0024 465.338 75.3753C465.998 74.7483 466.893 74.396 467.827 74.396H517.981C518.915 74.396 519.81 74.7483 520.47 75.3753C521.13 76.0024 521.501 76.8528 521.501 77.7396C521.501 78.6264 521.13 79.4769 520.47 80.104C519.81 80.731 518.915 81.0833 517.981 81.0833Z" fill="#CCCCCC"/>
<path d="M642.048 81.0833H591.894C590.96 81.0833 590.065 80.731 589.405 80.104C588.745 79.4769 588.374 78.6264 588.374 77.7396C588.374 76.8528 588.745 76.0024 589.405 75.3753C590.065 74.7483 590.96 74.396 591.894 74.396H642.048C642.982 74.396 643.877 74.7483 644.537 75.3753C645.197 76.0024 645.568 76.8528 645.568 77.7396C645.568 78.6264 645.197 79.4769 644.537 80.104C643.877 80.731 642.982 81.0833 642.048 81.0833Z" fill="#CCCCCC"/>
<path d="M131.115 325.914C129.827 325.794 128.583 325.408 127.47 324.782C126.357 324.156 125.402 323.306 124.672 322.291C123.942 321.277 123.455 320.122 123.246 318.91C123.036 317.697 123.109 316.456 123.459 315.273L100.905 295.327L112.83 292.453L135.009 309.542C137.062 310.233 138.776 311.615 139.828 313.426C140.88 315.238 141.196 317.353 140.716 319.371C140.236 321.389 138.994 323.17 137.224 324.376C135.454 325.582 133.281 326.129 131.115 325.914Z" fill="#FFB8B8"/>
<path d="M162.259 473.337H173.046L178.178 433.808H162.257L162.259 473.337Z" fill="#FFB8B8"/>
<path d="M193.851 482.851L159.947 482.853L159.947 470.409L180.751 470.408C184.225 470.408 187.557 471.719 190.014 474.052C192.471 476.386 193.851 479.551 193.851 482.851L193.851 482.851Z" fill="#2F2E41"/>
<path d="M88.2944 465.937L98.7196 468.574L114.383 431.63L98.9976 427.739L88.2944 465.937Z" fill="#FFB8B8"/>
<path d="M116.247 482.855L83.4847 474.57L86.854 462.545L106.958 467.628C110.316 468.477 113.18 470.558 114.922 473.414C116.664 476.269 117.141 479.665 116.247 482.855Z" fill="#2F2E41"/>
<path d="M175.947 465.853H159.487C158.447 465.856 157.443 465.49 156.674 464.825C155.904 464.161 155.424 463.248 155.328 462.264L145.336 363.684C145.262 362.961 144.927 362.284 144.386 361.77C143.846 361.256 143.135 360.937 142.374 360.866C141.612 360.795 140.849 360.978 140.214 361.383C139.58 361.788 139.113 362.39 138.894 363.086L109.88 455.203C109.573 456.182 108.88 457.011 107.946 457.516C107.011 458.022 105.908 458.165 104.865 457.916L89.5515 454.279C89.017 454.152 88.5143 453.926 88.0722 453.614C87.63 453.301 87.2573 452.909 86.9753 452.46C86.6934 452.01 86.5079 451.512 86.4294 450.994C86.351 450.476 86.3811 449.948 86.5182 449.441C86.7683 448.513 111.517 356.632 111.733 355.687C117.341 316.426 124.049 305.906 127.653 300.254C127.952 299.786 128.226 299.356 128.473 298.95C128.782 298.441 130.683 293.395 131.89 290.119C132.046 289.586 132.318 289.089 132.687 288.661C133.055 288.233 133.514 287.882 134.032 287.63C149.176 280.272 166.895 285.365 171.965 287.102C172.805 287.383 173.527 287.915 174.022 288.619C189.231 310.412 181.767 436.986 180.116 462.138C180.048 463.144 179.579 464.088 178.804 464.778C178.03 465.468 177.009 465.852 175.947 465.853Z" fill="#2F2E41"/>
<path d="M133.468 216.154C145.404 216.154 155.08 206.962 155.08 195.623C155.08 184.284 145.404 175.092 133.468 175.092C121.533 175.092 111.857 184.284 111.857 195.623C111.857 206.962 121.533 216.154 133.468 216.154Z" fill="#FFB8B8"/>
<path d="M131.178 294.105L131.023 293.962C130.732 293.694 101.937 266.895 105.664 242.115C107.257 231.516 116.284 224.744 131.768 222.529C137.457 221.727 143.259 222.902 148.109 225.838C152.959 228.774 156.53 233.275 158.166 238.513L173.476 288.236L131.178 294.105Z" fill="#CCCCCC"/>
<path d="M116.441 313.166L95.9227 293.797C94.5197 292.465 93.5012 290.813 92.9649 288.999C92.4287 287.185 92.3929 285.27 92.8608 283.439L102.794 245.055C103.091 243.905 103.634 242.825 104.389 241.882C105.143 240.939 106.094 240.153 107.181 239.573C108.268 238.993 109.469 238.632 110.709 238.511C111.949 238.389 113.202 238.511 114.391 238.869C116.656 239.562 118.549 241.067 119.667 243.063C120.785 245.059 121.042 247.391 120.382 249.563L109.925 283.331L126.835 300.582L116.441 313.166Z" fill="#CCCCCC"/>
<path d="M226.492 247.064C225.95 248.179 225.156 249.168 224.168 249.961C223.18 250.754 222.02 251.331 220.772 251.652C219.523 251.973 218.216 252.03 216.941 251.819C215.667 251.608 214.457 251.135 213.396 250.431L186.005 263.918L187.216 252.461L211.498 238.185C212.86 236.57 214.798 235.487 216.945 235.139C219.092 234.791 221.298 235.203 223.146 236.298C224.995 237.392 226.356 239.092 226.973 241.077C227.589 243.061 227.418 245.191 226.492 247.064H226.492Z" fill="#FFB8B8"/>
<path d="M210.405 255.592L183.703 266.553C181.926 267.277 179.982 267.555 178.059 267.359C176.137 267.163 174.299 266.5 172.724 265.435L138.769 242.323C137.756 241.633 136.902 240.753 136.262 239.737C135.621 238.721 135.206 237.591 135.043 236.417C134.88 235.242 134.973 234.049 135.315 232.91C135.657 231.771 136.242 230.711 137.033 229.796C138.553 228.055 140.726 226.945 143.093 226.7C145.459 226.455 147.833 227.096 149.711 228.485L178.826 250.254L201.968 241.748L210.405 255.592Z" fill="#CCCCCC"/>
<path d="M137.051 202.202C139.717 199.029 144.698 198.858 148.36 196.765C153.157 194.023 155.141 187.895 153.595 182.783C152.049 177.671 147.49 173.688 142.263 171.782C137.036 169.877 131.221 169.854 125.707 170.775C117.497 172.146 109.414 175.786 104.407 182.117C99.4001 188.448 98.1258 197.72 102.664 204.363C104.749 207.416 107.969 209.936 108.801 213.488C109.895 218.152 106.451 222.651 102.762 225.898C98.5584 229.598 93.7363 232.697 90.0539 236.868C86.3716 241.039 83.916 246.737 85.5963 251.941C87.0042 256.302 91.101 259.514 95.5933 261.123C100.086 262.732 104.979 262.964 109.779 263.053C114.44 263.14 119.39 263.032 123.317 260.645C127.52 258.089 129.765 253.24 129.93 248.501C130.096 243.763 128.429 239.12 126.196 234.881C124.864 232.354 123.316 229.905 122.431 227.207C121.546 224.509 121.393 221.447 122.81 218.962C124.299 216.35 127.313 214.775 130.381 214.203C130.54 214.173 130.709 214.146 130.885 214.123C131.758 214.015 132.599 213.74 133.357 213.315C134.115 212.89 134.775 212.323 135.296 211.649C135.817 210.975 136.188 210.207 136.388 209.393C136.588 208.579 136.612 207.734 136.458 206.911C136.108 205.06 136.139 203.288 137.051 202.202Z" fill="#2F2E41"/>
<path d="M425.197 474.212H414.41L409.278 434.683L425.199 434.684L425.197 474.212Z" fill="#A0616A"/>
<path d="M406.704 471.283H427.509V483.728H393.605C393.605 482.093 393.944 480.475 394.602 478.965C395.261 477.456 396.225 476.084 397.442 474.928C398.658 473.773 400.102 472.856 401.692 472.231C403.281 471.605 404.984 471.283 406.704 471.283Z" fill="#2F2E41"/>
<path d="M503.47 462.604L493.658 466.861L471.701 432.932L486.183 426.648L503.47 462.604Z" fill="#A0616A"/>
<path d="M485.368 467.239L504.292 459.028L509.734 470.347L478.895 483.728C478.18 482.242 477.781 480.636 477.719 479.003C477.658 477.37 477.936 475.741 478.537 474.21C479.138 472.679 480.05 471.275 481.222 470.079C482.395 468.883 483.803 467.918 485.368 467.239Z" fill="#2F2E41"/>
<path d="M472.055 340.932C473.088 340.193 473.939 339.248 474.546 338.163C475.154 337.078 475.503 335.879 475.57 334.652C475.638 333.425 475.421 332.199 474.935 331.06C474.449 329.921 473.707 328.897 472.76 328.06L485.44 300.726L469.331 303.319L459.758 328.879C458.384 330.484 457.677 332.512 457.772 334.579C457.866 336.646 458.756 338.608 460.271 340.094C461.787 341.58 463.824 342.485 465.995 342.64C468.167 342.794 470.323 342.187 472.055 340.932Z" fill="#A0616A"/>
<path d="M424.51 463.789H414.204C413.205 463.786 412.243 463.425 411.511 462.778C410.78 462.132 410.331 461.247 410.255 460.3L404.635 317.729C404.593 317.182 404.678 316.634 404.882 316.122C405.087 315.609 405.406 315.146 405.819 314.763C406.232 314.381 406.728 314.089 407.272 313.907C407.816 313.726 408.395 313.659 408.969 313.712L468.569 319.725C469.535 319.815 470.433 320.239 471.092 320.916C471.751 321.593 472.125 322.476 472.144 323.398L473.393 386.288C473.399 386.629 473.469 386.967 473.599 387.285L498.047 447.515C498.236 447.98 498.325 448.477 498.31 448.975C498.296 449.474 498.176 449.964 497.96 450.419C497.744 450.873 497.434 451.282 497.05 451.622C496.665 451.961 496.214 452.225 495.721 452.397L485.278 456.053C484.371 456.37 483.373 456.361 482.473 456.028C481.572 455.695 480.83 455.06 480.388 454.244L450.355 398.765C450.191 398.464 450.071 398.142 449.999 397.81L444.868 374.326C444.72 373.645 444.32 373.037 443.742 372.611C443.164 372.184 442.445 371.967 441.714 371.998C440.982 372.03 440.287 372.308 439.752 372.782C439.217 373.257 438.877 373.897 438.793 374.588L428.444 460.455C428.333 461.373 427.871 462.22 427.146 462.835C426.42 463.45 425.482 463.789 424.51 463.789Z" fill="#2F2E41"/>
<path d="M429.641 206.252C441.577 206.252 451.253 197.06 451.253 185.721C451.253 174.382 441.577 165.19 429.641 165.19C417.706 165.19 408.03 174.382 408.03 185.721C408.03 197.06 417.706 206.252 429.641 206.252Z" fill="#A0616A"/>
<path d="M444.462 330.765C429.807 330.612 415.5 326.495 403.218 318.896L403.008 318.759L403.03 318.516L411.297 227.055C411.581 223.952 413.039 221.052 415.401 218.891C417.762 216.73 420.867 215.455 424.142 215.3C434.856 214.833 449.247 215.422 456.95 220.873C468.592 229.11 474.203 241.515 472.345 254.905C468.491 282.673 472.857 320.13 473.367 324.31L473.404 324.611L473.114 324.738C464.139 328.704 454.361 330.761 444.462 330.765Z" fill="#6C63FF"/>
<path d="M473.267 324.465C472.658 324.464 472.056 324.343 471.499 324.11C470.941 323.876 470.441 323.536 470.029 323.109L465.301 318.21C464.791 317.677 464.433 317.029 464.262 316.327C464.091 315.625 464.113 314.893 464.326 314.201L475.105 279.541L458.704 246.821C457.938 245.289 457.75 243.554 458.172 241.906C458.545 240.46 459.369 239.155 460.538 238.163C461.707 237.171 463.165 236.539 464.72 236.351C466.274 236.162 467.852 236.426 469.246 237.106C470.64 237.787 471.784 238.853 472.527 240.164L494.784 274.472C495.688 275.863 496.218 277.445 496.329 279.077C496.439 280.709 496.126 282.342 495.417 283.832L477.282 322.004C476.984 322.635 476.524 323.186 475.946 323.606C475.367 324.026 474.688 324.303 473.968 324.412C473.737 324.447 473.502 324.465 473.267 324.465Z" fill="#6C63FF"/>
<path d="M320.936 258.257C321.974 258.99 323.168 259.498 324.435 259.746C325.703 259.993 327.011 259.973 328.27 259.688C329.528 259.403 330.705 258.859 331.718 258.095C332.731 257.331 333.556 256.366 334.133 255.266L365.315 259.108L358.149 245.158L329.637 243.648C327.628 242.849 325.381 242.777 323.32 243.447C321.259 244.116 319.529 245.48 318.456 247.281C317.384 249.082 317.044 251.194 317.501 253.216C317.958 255.239 319.18 257.033 320.936 258.257V258.257Z" fill="#A0616A"/>
<path d="M389.667 265.875C389.124 265.875 388.582 265.84 388.044 265.769L338.988 259.305C338.186 259.201 337.425 258.908 336.772 258.454C336.119 258 335.595 257.399 335.248 256.704C335.136 256.481 335.042 256.249 334.968 256.011H334.968C334.778 255.394 334.725 254.746 334.812 254.109C334.899 253.471 335.124 252.858 335.474 252.307L339.533 245.913C339.97 245.23 340.584 244.664 341.317 244.271C342.05 243.878 342.876 243.67 343.718 243.668H343.725L386.485 243.714L418.42 216.533C419.906 215.271 421.803 214.534 423.794 214.444C425.541 214.367 427.273 214.795 428.759 215.672C430.245 216.548 431.417 217.833 432.12 219.355C432.822 220.877 433.023 222.566 432.694 224.198C432.366 225.831 431.525 227.331 430.281 228.5L398.415 262.169C397.312 263.335 395.963 264.268 394.456 264.907C392.949 265.545 391.317 265.875 389.667 265.875Z" fill="#6C63FF"/>
<path d="M432.098 203.986C434.073 199.643 435.744 193.861 431.956 190.791C429.759 189.01 426.594 189.006 423.716 188.785C415.605 188.16 407.256 184.615 403.292 177.865C399.328 171.114 401.542 161.076 409.021 158.03C414.062 155.977 419.841 157.376 425.118 158.797L440.962 163.065C445.669 164.334 450.612 165.732 454.001 169.085C459.406 174.433 459.002 183.473 454.709 189.664C450.416 195.855 443.951 202.312 436.55 204.662L432.098 203.986Z" fill="#2F2E41"/>
<path d="M650.679 484H1.04768C0.90984 484 0.77328 483.975 0.645817 483.925C0.518353 483.875 0.402504 483.802 0.304895 483.71C0.207285 483.617 0.129838 483.507 0.0769961 483.386C0.0241543 483.265 -0.00305176 483.136 -0.00305176 483.005C-0.00305176 482.874 0.0241543 482.744 0.0769961 482.623C0.129838 482.502 0.207285 482.392 0.304895 482.3C0.402504 482.207 0.518353 482.134 0.645817 482.084C0.77328 482.035 0.90984 482.009 1.04768 482.009H650.679C650.817 482.009 650.953 482.035 651.081 482.084C651.208 482.134 651.324 482.207 651.422 482.3C651.519 482.392 651.597 482.502 651.65 482.623C651.703 482.744 651.73 482.874 651.73 483.005C651.73 483.136 651.703 483.265 651.65 483.386C651.597 483.507 651.519 483.617 651.422 483.71C651.324 483.802 651.208 483.875 651.081 483.925C650.953 483.975 650.817 484 650.679 484Z" fill="#3F3D56"/>
</g>
<defs>
<clipPath id="clip0">
<rect width="723" height="484" fill="white"/>
</clipPath>
</defs>
</svg>
